<svg width="158" height="44" viewBox="0 0 158 44" fill="none" xmlns="http://www.w3.org/2000/svg">
<g clip-path="url(#clip0_15_712)">
<path d="M43.7786 37.9021C43.7565 37.8469 43.7234 37.8137 43.6683 37.8137H42.3009C42.2457 37.8137 42.2016 37.8469 42.1906 37.9021L40.3049 43.8122C40.3049 43.8122 40.3049 43.8785 40.3049 43.9006C40.327 43.9227 40.349 43.9337 40.3821 43.9337H41.4849C41.54 43.9337 41.5841 43.9006 41.5951 43.8454L41.8488 42.9837C41.8488 42.9837 41.8708 42.9506 41.8929 42.9506H44.0432C44.0432 42.9506 44.0763 42.9616 44.0873 42.9837L44.352 43.8454C44.374 43.9006 44.4071 43.9337 44.4622 43.9337H45.565C45.6311 43.9337 45.6642 43.9116 45.6642 43.8564C45.6642 43.8343 45.6642 43.8233 45.6642 43.8122L43.7786 37.9021ZM43.7344 42.0005H42.2016C42.2016 42.0005 42.1575 41.9784 42.1686 41.9453L42.9405 39.3492C42.9405 39.3492 42.9515 39.3272 42.9625 39.3161C42.9736 39.3161 42.9846 39.3161 42.9846 39.3492L43.7675 41.9453C43.7675 41.9453 43.7675 42.0005 43.7344 42.0005Z" fill="white"/>
<path d="M36.6111 38.0457C36.3243 37.891 35.9825 37.8137 35.5965 37.8137H33.1374C33.1374 37.8137 33.0823 37.8137 33.0602 37.8469C33.0382 37.869 33.0272 37.8911 33.0272 37.9242V43.8454C33.0272 43.8454 33.0272 43.9006 33.0602 43.9227C33.0823 43.9448 33.1044 43.9558 33.1374 43.9558H34.163C34.163 43.9558 34.2181 43.9558 34.2402 43.9227C34.2622 43.9006 34.2733 43.8785 34.2733 43.8454V41.6139C34.2733 41.6139 34.2843 41.5697 34.3174 41.5697H35.5524C35.9384 41.5697 36.2913 41.4924 36.589 41.3377C36.8867 41.183 37.1183 40.9621 37.2837 40.6859C37.4491 40.4098 37.5373 40.0783 37.5373 39.7138C37.5373 39.3492 37.4602 39.0068 37.2947 38.7196C37.1293 38.4323 36.9088 38.2114 36.6221 38.0457M36.0597 40.3324C35.8943 40.4871 35.6848 40.5644 35.4091 40.5644H34.3063C34.3063 40.5644 34.2622 40.5534 34.2622 40.5202V38.9074C34.2622 38.9074 34.2733 38.8632 34.3063 38.8632H35.4091C35.6737 38.8632 35.8943 38.9405 36.0597 39.0952C36.2251 39.2498 36.3023 39.4597 36.3023 39.7138C36.3023 39.9679 36.2251 40.1667 36.0597 40.3214" fill="white"/>
<path d="M39.4113 37.8137H38.3858C38.3858 37.8137 38.3307 37.8137 38.3086 37.8469C38.2865 37.869 38.2755 37.8911 38.2755 37.9242V43.8343C38.2755 43.8343 38.2755 43.8895 38.3086 43.9116C38.3307 43.9337 38.3527 43.9448 38.3858 43.9448H39.4113C39.4113 43.9448 39.4665 43.9448 39.4885 43.9116C39.5106 43.8895 39.5216 43.8674 39.5216 43.8343V37.9242C39.5216 37.9242 39.5216 37.869 39.4885 37.8469C39.4665 37.8248 39.4444 37.8137 39.4113 37.8137Z" fill="white"/>
<path d="M50.6803 37.8137H49.6548C49.6548 37.8137 49.5997 37.8137 49.5776 37.8469C49.5555 37.869 49.5445 37.8911 49.5445 37.9242V41.9232C49.5445 42.2325 49.4453 42.4866 49.2578 42.6744C49.0703 42.8622 48.8167 42.9616 48.5079 42.9616C48.1992 42.9616 47.9456 42.8622 47.7581 42.6744C47.5706 42.4866 47.4714 42.2325 47.4714 41.9232V37.9242C47.4714 37.9242 47.4714 37.869 47.4383 37.8469C47.4162 37.8248 47.3942 37.8137 47.3611 37.8137H46.3356C46.3356 37.8137 46.2804 37.8137 46.2584 37.8469C46.2363 37.869 46.2253 37.8911 46.2253 37.9242V41.9121C46.2253 42.3209 46.3245 42.6965 46.512 43.0058C46.6995 43.3261 46.9641 43.5692 47.306 43.7459C47.6478 43.9227 48.0448 44.0111 48.4859 44.0111C48.927 44.0111 49.324 43.9227 49.6658 43.7459C50.0077 43.5692 50.2723 43.3261 50.4598 43.0058C50.6473 42.6854 50.7465 42.3209 50.7465 41.9121V37.9242C50.7465 37.9242 50.7465 37.869 50.7134 37.8469C50.6914 37.8248 50.6693 37.8137 50.6362 37.8137" fill="white"/>
<path d="M53.3396 36.1896H52.4574C52.3912 36.1896 52.3471 36.2117 52.3251 36.2669L51.8619 37.1507C51.8619 37.1507 51.8399 37.2169 51.8619 37.239C51.8729 37.2611 51.895 37.2722 51.9391 37.2722H52.6669C52.6669 37.2722 52.7551 37.2501 52.7882 37.2059L53.4057 36.3221C53.4057 36.3221 53.4278 36.2559 53.4168 36.2338C53.4057 36.2117 53.3727 36.1896 53.3286 36.1896" fill="white"/>
<path d="M52.93 37.8137H51.9045C51.9045 37.8137 51.8493 37.8137 51.8273 37.8469C51.8052 37.869 51.7942 37.8911 51.7942 37.9242V43.8343C51.7942 43.8343 51.7942 43.8895 51.8273 43.9116C51.8493 43.9337 51.8714 43.9448 51.9045 43.9448H52.93C52.93 43.9448 52.9851 43.9448 53.0072 43.9116C53.0293 43.8895 53.0403 43.8674 53.0403 43.8343V37.9242C53.0403 37.9242 53.0403 37.869 53.0072 37.8469C52.9851 37.8248 52.9631 37.8137 52.93 37.8137Z" fill="white"/>
<path d="M32.6404 18.371C32.5411 19.2326 32.3647 20.0722 32.1331 20.8897C32.3647 20.0722 32.5301 19.2326 32.6404 18.371Z" fill="white"/>
<path d="M24.4578 15.1785C24.535 15.1785 24.6011 15.1785 24.6563 15.1675C24.7334 15.1454 24.7996 15.1012 24.8658 15.0349C24.9209 14.9797 24.965 14.9134 25.0091 14.825C25.0532 14.7256 25.0863 14.6262 25.0974 14.5489C25.0974 14.4715 25.0973 14.3942 25.0753 14.3279C25.0532 14.2616 25.0202 14.1954 24.965 14.1512C24.9209 14.118 24.8547 14.0738 24.7665 14.0297L24.3695 13.8308L23.8513 14.9134L24.2593 15.1123C24.3365 15.1564 24.4137 15.1785 24.4688 15.1896M24.4908 14.107L24.5901 14.1512C24.6783 14.1954 24.7334 14.2285 24.7665 14.2506C24.7996 14.2837 24.8327 14.3169 24.8437 14.35C24.8547 14.3832 24.8658 14.4384 24.8437 14.4826C24.8437 14.5378 24.8106 14.6041 24.7776 14.6814C24.7334 14.7698 24.7004 14.825 24.6563 14.8692C24.6121 14.9134 24.5791 14.9355 24.546 14.9466C24.5129 14.9466 24.4798 14.9466 24.4357 14.9466C24.4026 14.9466 24.3585 14.9245 24.2924 14.8913L24.1269 14.814L24.4688 14.0959L24.4908 14.107Z" fill="white"/>
<path d="M22.4948 13.8751C22.4507 14.0077 22.4618 14.1181 22.4948 14.2176C22.5389 14.317 22.6382 14.3943 22.7705 14.4606C22.8698 14.5048 22.947 14.5269 23.0241 14.5269C23.1013 14.5269 23.1675 14.5048 23.2226 14.4716C23.2778 14.4274 23.3219 14.3833 23.355 14.317C23.3881 14.2507 23.3991 14.1844 23.388 14.1181C23.388 14.0518 23.355 13.9966 23.3109 13.9524C23.2667 13.9082 23.2006 13.842 23.1013 13.7646C23.0021 13.6873 22.947 13.6431 22.9249 13.5989C22.9139 13.5658 22.9139 13.5437 22.9249 13.5216C22.9359 13.4885 22.958 13.4774 22.9911 13.4664C23.0352 13.4664 23.0903 13.4664 23.1565 13.4885C23.2226 13.5216 23.2557 13.5547 23.2778 13.5879C23.2998 13.6321 23.2998 13.6763 23.2778 13.7425L23.5094 13.8309C23.5535 13.7315 23.5535 13.6321 23.5094 13.5437C23.4652 13.4553 23.377 13.378 23.2337 13.3117C23.1454 13.2786 23.0683 13.2565 23.0021 13.2565C22.9359 13.2565 22.8698 13.2675 22.8146 13.3117C22.7595 13.3448 22.7264 13.389 22.6933 13.4443C22.6492 13.5326 22.6602 13.621 22.6933 13.7094C22.7264 13.7757 22.7926 13.853 22.8918 13.9303C22.969 13.9966 23.0241 14.0408 23.0462 14.0519C23.0793 14.085 23.1013 14.1071 23.1013 14.1402C23.1013 14.1623 23.1013 14.1955 23.1013 14.2176C23.0793 14.2617 23.0462 14.2838 23.0021 14.3059C22.947 14.317 22.8918 14.3059 22.8146 14.2838C22.7485 14.2507 22.7044 14.2176 22.6713 14.1623C22.6492 14.1071 22.6382 14.0408 22.6713 13.9635L22.4397 13.8861L22.4948 13.8751Z" fill="white"/>
<path d="M25.0865 15.3775C25.1306 15.5211 25.2298 15.6427 25.3842 15.72C25.5386 15.8084 25.693 15.8194 25.8363 15.7752C25.9797 15.731 26.101 15.6206 26.1892 15.4438C26.2774 15.2671 26.2995 15.1124 26.2664 14.9577C26.2223 14.8141 26.123 14.6926 25.9687 14.6153C25.8804 14.5711 25.8032 14.538 25.715 14.538C25.6599 14.538 25.5937 14.538 25.5276 14.5601C25.4614 14.5822 25.4063 14.6153 25.3511 14.6484C25.285 14.7037 25.2188 14.792 25.1637 14.8915C25.0754 15.0572 25.0534 15.2229 25.0975 15.3665M25.3842 15.013C25.4504 14.8915 25.5276 14.8141 25.6158 14.781C25.704 14.7479 25.7922 14.7589 25.8804 14.8031C25.9687 14.8473 26.0238 14.9136 26.0458 15.0019C26.0679 15.0903 26.0458 15.2008 25.9797 15.3223C25.9135 15.4438 25.8363 15.5211 25.7481 15.5543C25.6599 15.5874 25.5717 15.5764 25.4835 15.5322C25.3952 15.488 25.3401 15.4217 25.318 15.3223C25.296 15.2339 25.318 15.1235 25.3732 15.0019" fill="white"/>
<path d="M27.0935 16.6697C27.1486 16.6918 27.2038 16.7139 27.2589 16.7028C27.3141 16.7028 27.3582 16.6807 27.4133 16.6476C27.4574 16.6145 27.5015 16.5813 27.5236 16.5261C27.5567 16.4708 27.5787 16.4046 27.5677 16.3383C27.5677 16.272 27.5346 16.2168 27.4795 16.1615C27.5346 16.1615 27.5897 16.1615 27.6449 16.1284C27.7 16.1063 27.7331 16.0621 27.7662 16.0179C27.7882 15.9737 27.8103 15.9295 27.8103 15.8743C27.8103 15.8301 27.8103 15.7859 27.7882 15.7417C27.7662 15.6976 27.7441 15.6644 27.7 15.6313C27.6669 15.5981 27.6008 15.565 27.5236 15.5098L27.1045 15.2667L26.487 16.3051L26.8399 16.515C26.9722 16.5924 27.0604 16.6365 27.0935 16.6586M27.2148 15.576L27.3361 15.6423C27.4354 15.6976 27.4905 15.7417 27.5125 15.7528C27.5456 15.7749 27.5677 15.808 27.5677 15.8412C27.5677 15.8743 27.5677 15.9074 27.5456 15.9295C27.5236 15.9627 27.5015 15.9848 27.4684 15.9958C27.4354 15.9958 27.4023 15.9958 27.3582 15.9848C27.3361 15.9848 27.281 15.9406 27.2038 15.8964L27.0714 15.8191L27.2148 15.576ZM26.9612 15.9958L27.1266 16.0952C27.2258 16.1505 27.281 16.1947 27.303 16.2168C27.3251 16.2389 27.3361 16.272 27.3361 16.3051C27.3361 16.3383 27.3361 16.3714 27.3141 16.3935C27.292 16.4267 27.2699 16.4487 27.2369 16.4598C27.2038 16.4598 27.1707 16.4598 27.1376 16.4598C27.1156 16.4598 27.0714 16.4267 26.9943 16.3825L26.7958 16.272L26.9612 15.9958Z" fill="white"/>
<path d="M17.8743 12.5827C17.9514 12.66 18.0507 12.7152 18.172 12.7484C18.2712 12.7705 18.3705 12.7815 18.4697 12.7705C18.569 12.7705 18.6572 12.7373 18.7123 12.7042L18.8447 12.2402L18.3374 12.0966L18.2823 12.2955L18.5469 12.3728L18.5028 12.5164C18.5028 12.5164 18.4146 12.5495 18.3595 12.5495C18.3043 12.5495 18.2492 12.5495 18.2051 12.5385C18.1058 12.5053 18.0397 12.4501 17.9956 12.3728C17.9514 12.2844 17.9514 12.1739 17.9956 12.0303C18.0286 11.8978 18.0838 11.8094 18.172 11.7652C18.2492 11.721 18.3374 11.71 18.4477 11.7321C18.5138 11.7542 18.569 11.7873 18.6021 11.8315C18.6351 11.8757 18.6572 11.9309 18.6572 11.9972L18.8998 12.0193C18.8998 11.9088 18.8777 11.8094 18.8116 11.721C18.7454 11.6326 18.6462 11.5774 18.5028 11.5332C18.3925 11.5001 18.2933 11.5001 18.2051 11.5111C18.0948 11.5332 17.9956 11.5885 17.9184 11.6658C17.8412 11.7431 17.786 11.8425 17.753 11.964C17.7199 12.0745 17.7199 12.185 17.7309 12.2955C17.753 12.4059 17.7971 12.4943 17.8743 12.5716" fill="white"/>
<path d="M16.5087 12.1295C16.5859 12.262 16.7072 12.3504 16.8836 12.3946C17.0601 12.4388 17.2034 12.4277 17.3358 12.3394C17.4681 12.262 17.5563 12.1295 17.6004 11.9417C17.6556 11.7539 17.6445 11.5882 17.5673 11.4556C17.4901 11.3231 17.3688 11.2347 17.2034 11.1905C17.1042 11.1684 17.016 11.1573 16.9388 11.1684C16.8726 11.1684 16.8175 11.2015 16.7623 11.2347C16.7072 11.2678 16.6521 11.312 16.608 11.3672C16.5528 11.4446 16.5087 11.5329 16.4756 11.6545C16.4315 11.8423 16.4425 11.9969 16.5197 12.1295M16.7182 11.7097C16.7513 11.5771 16.8064 11.4777 16.8836 11.4335C16.9608 11.3783 17.0491 11.3672 17.1483 11.4004C17.2475 11.4225 17.3137 11.4777 17.3578 11.5661C17.4019 11.6434 17.4019 11.7539 17.3578 11.8864C17.3247 12.019 17.2696 12.1184 17.1924 12.1626C17.1152 12.2179 17.027 12.2289 16.9388 12.2068C16.8506 12.1847 16.7734 12.1295 16.7293 12.0411C16.6851 11.9527 16.6851 11.8533 16.7182 11.7207" fill="white"/>
<path d="M18.9986 12.9912L19.175 12.7592L19.6382 12.9029L19.6602 13.1901L19.9139 13.2674L19.8257 11.9749L19.5831 11.8976L18.767 12.9029L19.0096 12.9802L18.9986 12.9912ZM19.6051 12.2179L19.6272 12.693L19.3184 12.5935L19.6161 12.2179H19.6051Z" fill="white"/>
<path d="M21.6682 13.9742C21.8337 14.0405 21.988 14.0405 22.1204 13.9742C22.2527 13.9079 22.363 13.7864 22.4291 13.5986C22.4953 13.4108 22.5063 13.2561 22.4402 13.1125C22.374 12.9689 22.2637 12.8695 22.0983 12.8032C22.0101 12.7701 21.9219 12.759 21.8337 12.759C21.7675 12.759 21.7124 12.7811 21.6462 12.8032C21.58 12.8364 21.5249 12.8695 21.4808 12.9137C21.4146 12.98 21.3595 13.0683 21.3154 13.1788C21.2492 13.3556 21.2382 13.5213 21.3043 13.6538C21.3595 13.7974 21.4808 13.8969 21.6462 13.9632M21.58 13.2672C21.6241 13.1346 21.6903 13.0573 21.7785 13.0131C21.8557 12.9689 21.9439 12.9689 22.0432 13.0131C22.1314 13.0463 22.1976 13.1125 22.2306 13.1899C22.2637 13.2782 22.2527 13.3777 22.2086 13.5102C22.1645 13.6428 22.0873 13.7312 22.0101 13.7754C21.9219 13.8195 21.8447 13.8195 21.7454 13.7864C21.6462 13.7533 21.5911 13.687 21.558 13.5986C21.5249 13.5102 21.5359 13.3998 21.58 13.2782" fill="white"/>
<path d="M20.6766 13.5438C20.7538 13.5438 20.82 13.5438 20.8751 13.5106C20.9413 13.4775 21.0074 13.4223 21.0626 13.356C21.1067 13.3007 21.1508 13.2234 21.1839 13.124C21.217 13.0135 21.239 12.9251 21.239 12.8368C21.239 12.7594 21.228 12.6821 21.1949 12.6158C21.1618 12.5495 21.1177 12.4943 21.0626 12.4501C21.0185 12.417 20.9523 12.3838 20.8531 12.3507L20.434 12.196L20.026 13.3339L20.4561 13.4885C20.5443 13.5217 20.6105 13.5327 20.6656 13.5327M20.5994 12.4833L20.6987 12.5164C20.7869 12.5495 20.8531 12.5716 20.8861 12.5937C20.9302 12.6158 20.9523 12.649 20.9744 12.6821C20.9964 12.7153 20.9964 12.7594 20.9964 12.8147C20.9964 12.8699 20.9744 12.9362 20.9523 13.0246C20.9192 13.1129 20.8861 13.1792 20.8531 13.2234C20.82 13.2676 20.7869 13.3007 20.7538 13.3118C20.7207 13.3228 20.6876 13.3339 20.6435 13.3228C20.6105 13.3228 20.5663 13.3118 20.5002 13.2786L20.3237 13.2124L20.5994 12.4612V12.4833Z" fill="white"/>
<path d="M28.6598 17.6751L28.8913 17.4983L29.2883 17.7635L29.2222 18.0507L29.4427 18.1943L29.7074 16.9239L29.4978 16.7803L28.4392 17.5204L28.6487 17.664L28.6598 17.6751ZM29.4537 17.1006L29.3435 17.5646L29.0678 17.3768L29.4537 17.1006Z" fill="white"/>
<path d="M27.7321 17.0674L27.9967 16.6366L28.0408 16.6587C28.0408 16.6587 28.118 16.7139 28.1401 16.736C28.1621 16.7581 28.1732 16.7802 28.1732 16.8133C28.1732 16.8465 28.1842 16.9238 28.1842 17.0343V17.3546L28.4378 17.5093V17.2331C28.4378 17.1226 28.4378 17.0453 28.4268 16.9901C28.4268 16.9459 28.3937 16.8906 28.3716 16.8354C28.4709 16.8796 28.5591 16.8907 28.6363 16.8686C28.7135 16.8465 28.7686 16.7912 28.8238 16.7139C28.8569 16.6587 28.8789 16.5924 28.8789 16.5261C28.8789 16.4598 28.8569 16.4046 28.8238 16.3493C28.7797 16.3052 28.7135 16.2389 28.6032 16.1726L28.1732 15.9075L27.5336 16.9348L27.7431 17.0674H27.7321ZM28.2614 16.2168L28.4268 16.3162C28.515 16.3714 28.5591 16.4046 28.5812 16.4156C28.6143 16.4377 28.6253 16.4709 28.6363 16.504C28.6363 16.5371 28.6363 16.5703 28.6143 16.6034C28.5922 16.6366 28.5701 16.6587 28.5481 16.6697C28.515 16.6697 28.4929 16.6808 28.4599 16.6697C28.4268 16.6697 28.3606 16.6255 28.2614 16.5703L28.107 16.4709L28.2724 16.2057L28.2614 16.2168Z" fill="white"/>
<path d="M15.8237 12.0965L16.4964 11.0029L16.2427 10.9476L15.7685 11.7651L15.6472 10.8261L15.3936 10.7709L15.5701 12.0413L15.8237 12.0965Z" fill="white"/>
<path d="M29.6628 18.272C29.6849 18.3825 29.7621 18.4708 29.8834 18.5592C29.9716 18.6255 30.0488 18.6586 30.126 18.6807C30.2032 18.7028 30.2693 18.6918 30.3355 18.6697C30.4017 18.6476 30.4568 18.6034 30.5009 18.5482C30.545 18.4819 30.5671 18.4266 30.5781 18.3604C30.5781 18.2941 30.5781 18.2388 30.545 18.1836C30.5119 18.1284 30.4678 18.051 30.3796 17.9627C30.3024 17.8743 30.2583 17.808 30.2473 17.7638C30.2473 17.7307 30.2473 17.7086 30.2583 17.6865C30.2804 17.6644 30.3024 17.6534 30.3355 17.6534C30.3796 17.6534 30.4347 17.6755 30.5009 17.7196C30.556 17.7638 30.5891 17.797 30.6002 17.8412C30.6112 17.8853 30.6002 17.9295 30.5781 17.9848L30.7766 18.1173C30.8428 18.029 30.8538 17.9295 30.8317 17.8301C30.8097 17.7307 30.7325 17.6423 30.6112 17.5539C30.534 17.4987 30.4678 17.4656 30.3906 17.4435C30.3245 17.4324 30.2583 17.4324 30.1921 17.4435C30.137 17.4656 30.0819 17.4987 30.0488 17.5539C29.9937 17.6313 29.9716 17.7196 29.9937 17.8191C30.0047 17.8853 30.0598 17.9737 30.148 18.0731C30.2142 18.1505 30.2583 18.2057 30.2693 18.2278C30.2914 18.2609 30.3134 18.2941 30.3134 18.3272C30.3134 18.3493 30.3134 18.3714 30.2914 18.4046C30.2693 18.4377 30.2252 18.4598 30.1701 18.4598C30.115 18.4598 30.0598 18.4487 29.9937 18.3935C29.9385 18.3493 29.8944 18.3051 29.8834 18.2499C29.8724 18.1947 29.8834 18.1284 29.9165 18.051L29.7069 17.9295C29.6408 18.051 29.6187 18.1615 29.6408 18.2609" fill="white"/>
<path d="M31.1656 17.9954L30.4454 18.9595L30.6397 19.1051L31.3599 18.141L31.1656 17.9954Z" fill="white"/>
<path d="M31.5057 19.7739L31.627 19.6082L31.1418 19.2437L31.7373 18.4483L31.5388 18.3047L30.822 19.2658L31.5057 19.7739Z" fill="white"/>
<path d="M5.52479 9.85375C5.52479 9.85375 5.41451 9.76538 5.34835 9.74328C5.29321 9.73224 5.21602 9.72119 5.11677 9.72119H4.67568L4.65363 10.9253H5.11677C5.20499 10.9253 5.28219 10.9253 5.33732 10.9143C5.41451 10.8922 5.46965 10.859 5.51376 10.8148C5.5689 10.7596 5.61301 10.6933 5.64609 10.6049C5.66814 10.5387 5.6902 10.4503 5.6902 10.3509C5.6902 10.2404 5.6902 10.141 5.65712 10.0636C5.63506 9.98632 5.59095 9.92004 5.54684 9.8648M5.39246 10.5497C5.39246 10.5497 5.34835 10.6381 5.32629 10.6712C5.30424 10.6933 5.27116 10.7154 5.22705 10.7154C5.19397 10.7154 5.14986 10.7154 5.08369 10.7154H4.90725V9.90899H5.01753C5.11678 9.90899 5.18294 9.90899 5.21602 9.92004C5.26013 9.92004 5.29321 9.95318 5.32629 9.97527C5.35938 10.0084 5.38143 10.0416 5.39246 10.0968C5.40349 10.141 5.41451 10.2183 5.41451 10.3067C5.41451 10.3951 5.41451 10.4724 5.38143 10.5276" fill="white"/>
<path d="M7.26574 10.0195L7.4532 10.9805L7.6958 10.9916L7.97149 10.0526L7.92738 11.0026L8.15895 11.0137L8.21409 9.80957L7.85018 9.78747L7.59656 10.5939L7.42012 9.76538L7.05622 9.74329L6.99005 10.9585L7.22163 10.9695L7.26574 10.0195Z" fill="white"/>
<path d="M16.3744 0C9.8462 0 4.21122 3.83329 1.57568 9.37886C12.6802 8.31835 22.3071 10.3952 32.6398 18.349C32.7169 17.7083 32.7611 17.0675 32.7611 16.4047C32.7611 7.34622 25.4279 0 16.3744 0ZM21.9763 11.4557L21.4139 11.1685L20.8625 11.4667L20.9618 10.8371L20.5097 10.3952L21.1382 10.2958L21.4139 9.72132L21.7006 10.2847L22.3292 10.3731L21.8771 10.815L21.9873 11.4336L21.9763 11.4557Z" fill="white"/>
<path d="M0.672669 11.7761C0.242602 13.2454 0 14.803 0 16.4159C0 25.4744 7.33319 32.8206 16.3756 32.8206C23.8742 32.8206 30.1819 27.7721 32.1337 20.8899C23.1354 13.5105 12.2735 10.1964 0.672669 11.7761ZM2.78992 13.3338L3.07663 12.7704L3.35232 13.3448L3.98088 13.4332L3.52875 13.8751L3.63903 14.5047L3.07663 14.2065L2.51424 14.4937L2.62451 13.8751L2.17239 13.4332L2.80095 13.3448L2.78992 13.3338ZM3.20896 22.569L2.74581 22.337L2.29369 22.5801L2.37088 22.0719L1.99595 21.7184L2.50321 21.6411L2.72376 21.1771L2.95533 21.6411L3.46259 21.7073L3.09869 22.0719L3.18691 22.5801L3.20896 22.569ZM4.96231 21.2544L4.433 20.9782L3.90368 21.2655L4.00293 20.68L3.57286 20.2712L4.16834 20.1829L4.42197 19.6416L4.68663 20.1718L5.2821 20.2492L4.86307 20.6689L4.97334 21.2544H4.96231ZM16.7506 29.7385L16.508 29.617L16.2654 29.7495L16.2984 29.4734L16.0999 29.2856L16.3646 29.2414L16.4749 28.9873L16.6072 29.2303L16.8829 29.2635L16.6954 29.4623L16.7506 29.7274V29.7385ZM16.9711 24.7894L16.4418 24.5133L15.9125 24.8005L16.0117 24.204L15.5817 23.7842L16.1771 23.6958L16.4418 23.1545L16.7064 23.6958L17.3019 23.7731L16.8719 24.1929L16.9821 24.7894H16.9711ZM24.977 29.6059L24.591 29.4181L24.2161 29.628L24.2822 29.2082L23.9735 28.91L24.3925 28.8437L24.569 28.457L24.7674 28.8437L25.1975 28.8989L24.8998 29.2082L24.977 29.628V29.6059ZM28.1087 25.6843L27.6787 25.4523L27.2376 25.6732L27.3258 25.1871L26.9839 24.8447L27.4692 24.7784L27.6897 24.3365L27.8992 24.7784L28.3844 24.8557L28.0315 25.1982L28.1087 25.6843ZM30.0385 22.0609L30.215 21.6853L30.4024 22.0498L30.8215 22.105L30.5237 22.4033L30.6009 22.812L30.226 22.6242L29.8621 22.8231L29.9283 22.4144L29.6195 22.1271L30.0275 22.0609H30.0385ZM29.1563 23.5632L28.8145 23.8946L28.8917 24.3697L28.4726 24.1377L28.0426 24.3586L28.1308 23.8946L27.8 23.5522L28.2741 23.497L28.4947 23.0772L28.6932 23.508L29.1674 23.5853L29.1563 23.5632ZM27.5574 21.7847L27.811 21.2434L28.0867 21.7736L28.6822 21.851L28.2631 22.2707L28.3734 22.8562L27.8441 22.5801L27.3148 22.8673L27.403 22.2707L26.9729 21.862L27.5574 21.7626V21.7847ZM25.9915 25.5185L26.1569 25.154L26.3444 25.5075L26.7413 25.5517L26.4546 25.8389L26.5318 26.2366L26.1679 26.0598L25.815 26.2587L25.8702 25.861L25.5724 25.5848L25.9694 25.5185H25.9915ZM24.3705 25.5185L24.5579 25.1319L24.7454 25.5185L25.1644 25.5848L24.8557 25.8831L24.9218 26.3029L24.5469 26.104L24.172 26.3029L24.2492 25.8831L23.9514 25.5848L24.3705 25.5296V25.5185ZM24.3925 27.032L24.6241 26.568L24.8446 27.032L25.3519 27.1093L24.977 27.4628L25.0542 27.971L24.602 27.7279L24.1389 27.9599L24.2381 27.4518L23.8742 27.0872L24.3815 27.0209L24.3925 27.032ZM22.4517 25.8831L22.6392 25.4965L22.8266 25.8831L23.2457 25.9383L22.9479 26.2366L23.0251 26.6564L22.6502 26.4575L22.2753 26.6564L22.3414 26.2366L22.0327 25.9383L22.4517 25.872V25.8831ZM21.1394 26.9988L21.36 27.4297L21.8452 27.4849L21.5033 27.8274L21.5916 28.3024L21.1505 28.0814L20.7204 28.3134L20.7976 27.8274L20.4447 27.4959L20.9299 27.4186L21.1394 26.9767V26.9988ZM20.0367 15.1234L20.2352 14.7257L20.4337 15.1234L20.8748 15.1896L20.555 15.499L20.6322 15.9408L20.2352 15.7309L19.8382 15.9408L19.9154 15.499L19.5956 15.1896L20.0367 15.1234ZM19.6177 25.4633L19.8051 25.0767L19.9926 25.4633L20.4116 25.5296L20.1029 25.8279L20.169 26.2476L19.7941 26.0488L19.4192 26.2476L19.4964 25.8279L19.1986 25.5296L19.6177 25.4744V25.4633ZM18.0077 19.8956L18.2393 20.3596L18.7575 20.4259L18.3826 20.7905L18.4819 21.3097L18.0187 21.0666L17.5556 21.3207L17.6438 20.8015L17.2688 20.4369L17.7871 20.3596L18.0187 19.8846L18.0077 19.8956ZM16.2984 18.9677L16.519 18.5037L16.7506 18.9677L17.2688 19.034L16.9049 19.3985L17.0042 19.9067L16.541 19.6747L16.0889 19.9177L16.1661 19.4096L15.7912 19.0561L16.2984 18.9788V18.9677ZM15.328 21.5637L15.4714 21.2876L15.6037 21.5748L15.9125 21.619L15.6809 21.8289L15.725 22.1382L15.4493 21.9835L15.1736 22.1271L15.2288 21.8178L15.0082 21.5969L15.317 21.5527L15.328 21.5637ZM14.0599 20.5916L14.2584 20.1939L14.4569 20.5916L14.898 20.6579L14.5782 20.9672L14.6554 21.4091L14.2584 21.1992L13.8614 21.4091L13.9386 20.9672L13.6188 20.6579L14.0599 20.5916ZM9.78127 16.7804L10.0018 16.3054L10.2444 16.7694L10.7627 16.8246L10.3988 17.2002L10.498 17.7084L10.0239 17.4764L9.57175 17.7304L9.64894 17.2112L9.26298 16.8577L9.78127 16.7694V16.7804ZM9.27401 25.143L9.52764 24.6237L9.79229 25.143L10.3657 25.2203L9.9577 25.629L10.057 26.2035L9.53866 25.9383L9.03141 26.2145L9.11963 25.6401L8.70059 25.2424L9.27401 25.154V25.143ZM7.4986 21.7736L7.70812 21.3207L7.92867 21.7626L8.4249 21.8289L8.07203 22.1824L8.16025 22.6684L7.71915 22.4475L7.27806 22.6905L7.35525 22.2045L6.99135 21.862L7.47655 21.7847L7.4986 21.7736ZM6.95826 23.519L7.14573 23.1324L7.33319 23.519L7.76326 23.5853L7.45449 23.8836L7.53169 24.3144L7.14573 24.1156L6.75977 24.3144L6.83696 23.8836L6.5282 23.5853L6.95826 23.519ZM6.39587 19.3102L6.16429 19.5311L6.21943 19.8515L5.93272 19.6968L5.64601 19.8404L5.70114 19.5201L5.46957 19.2991L5.78936 19.2549L5.93272 18.9677L6.07608 19.2549L6.39587 19.2991V19.3102Z" fill="white"/>
<path d="M9.53772 11.0804C9.61491 11.0583 9.67005 11.0362 9.71416 10.992C9.7693 10.9368 9.82443 10.8705 9.85751 10.7932C9.8906 10.7269 9.90162 10.6385 9.91265 10.5391C9.91265 10.4286 9.91265 10.3292 9.8906 10.2519C9.86854 10.1745 9.83546 10.1083 9.79135 10.053C9.74724 9.9978 9.68108 9.95361 9.61491 9.93152C9.55978 9.90942 9.48258 9.89837 9.38334 9.89837L8.94224 9.86523L8.86505 11.0694L9.31717 11.1025C9.40539 11.1025 9.48258 11.1025 9.53772 11.0914M9.11868 10.8816L9.17382 10.0862H9.28409C9.38334 10.0972 9.4495 10.1083 9.48258 10.1193C9.52669 10.1304 9.55977 10.1525 9.59286 10.1856C9.62594 10.2187 9.63697 10.2519 9.65902 10.3071C9.67005 10.3623 9.68108 10.4286 9.65902 10.517C9.65902 10.6054 9.63697 10.6827 9.61491 10.7379C9.59286 10.7932 9.5708 10.8263 9.54875 10.8484C9.51567 10.8705 9.48258 10.8816 9.4495 10.8926C9.41642 10.8926 9.37231 10.8926 9.30615 10.8926H9.12971L9.11868 10.8816Z" fill="white"/>
<path d="M2.61305 9.76575C2.51381 9.76575 2.42559 9.78784 2.35943 9.82098C2.30429 9.84307 2.24915 9.88726 2.20504 9.93145C2.16093 9.98668 2.12785 10.0419 2.09477 10.0972C2.06169 10.1855 2.05066 10.285 2.05066 10.4065C2.05066 10.5943 2.11682 10.7489 2.2271 10.8483C2.33737 10.9478 2.48073 11.003 2.65716 10.992C2.8336 10.992 2.97696 10.9257 3.0762 10.8152C3.17545 10.7047 3.21956 10.5501 3.21956 10.3512C3.21956 10.1524 3.15339 9.99773 3.04312 9.89831C2.93285 9.78784 2.78949 9.74365 2.61305 9.7547M2.89977 10.6937C2.84463 10.771 2.76744 10.8042 2.66819 10.8042C2.56895 10.8042 2.49175 10.771 2.42559 10.7047C2.35943 10.6385 2.32634 10.539 2.31532 10.3954C2.31532 10.2629 2.33737 10.1524 2.39251 10.0861C2.44764 10.0198 2.52484 9.97564 2.63511 9.97564C2.73436 9.97564 2.81155 9.99773 2.87771 10.064C2.94388 10.1303 2.97696 10.2297 2.97696 10.3733C2.97696 10.5169 2.9549 10.6164 2.89977 10.6937Z" fill="white"/>
<path d="M4.23381 10.4944C4.23381 10.4944 4.15662 10.4281 4.10148 10.395C4.21176 10.3729 4.28895 10.3398 4.33306 10.2735C4.38819 10.2182 4.41025 10.1409 4.41025 10.0415C4.41025 9.97521 4.38819 9.90893 4.35511 9.85369C4.32203 9.79846 4.26689 9.76532 4.21176 9.74322C4.15662 9.72113 4.05737 9.71008 3.92504 9.72113H3.41779L3.43984 10.9363H3.68244V10.4281H3.72655C3.78169 10.4281 3.8258 10.4281 3.84785 10.4281C3.86991 10.4281 3.90299 10.4502 3.92504 10.4723C3.9471 10.4944 3.99121 10.5497 4.05737 10.6491L4.23381 10.9032H4.52052L4.36614 10.6601C4.29997 10.5717 4.25587 10.5055 4.22278 10.4723M3.84785 10.2403H3.67141V9.94207H3.85888C3.95813 9.94207 4.01326 9.94207 4.03532 9.94207C4.07943 9.94207 4.10148 9.96416 4.12354 9.98626C4.14559 10.0084 4.15662 10.0415 4.15662 10.0857C4.15662 10.1188 4.15662 10.152 4.13456 10.1741C4.11251 10.1961 4.09045 10.2182 4.0684 10.2293C4.03532 10.2293 3.96915 10.2403 3.84785 10.2514" fill="white"/>
<path d="M6.78211 9.94231V9.74347L5.8889 9.73242L5.87787 10.9365L6.79314 10.9476V10.7487L6.12047 10.7377L6.1315 10.4063L6.72698 10.4173L6.738 10.2074H6.1315V9.93127L6.78211 9.94231Z" fill="white"/>
<path d="M10.5961 11.2349C10.7725 11.2459 10.9159 11.2017 11.0372 11.1023C11.1474 11.0029 11.2136 10.8593 11.2356 10.6604C11.2467 10.4616 11.2136 10.3069 11.1143 10.1854C11.0151 10.0639 10.8828 9.99762 10.7063 9.98657C10.6071 9.98657 10.5189 9.98657 10.4417 10.0087C10.3865 10.0308 10.3314 10.0639 10.2763 10.1081C10.2211 10.1523 10.188 10.2075 10.155 10.2627C10.1109 10.3401 10.0888 10.4395 10.0778 10.561C10.0667 10.7488 10.0998 10.9035 10.1991 11.025C10.2983 11.1465 10.4306 11.2128 10.6071 11.2238M10.3093 10.5831C10.3204 10.4395 10.3645 10.3401 10.4306 10.2848C10.4968 10.2186 10.585 10.1965 10.6843 10.2075C10.7835 10.2075 10.8607 10.2517 10.9158 10.329C10.971 10.4064 10.993 10.5058 10.982 10.6494C10.971 10.793 10.9269 10.8924 10.8607 10.9587C10.7945 11.025 10.7063 11.0471 10.6181 11.0471C10.5189 11.0471 10.4417 10.9918 10.3865 10.9256C10.3314 10.8482 10.3093 10.7488 10.3204 10.6052" fill="white"/>
<path d="M12.0085 11.1571C12.0085 11.1571 11.9093 11.1902 11.8321 11.1792C11.7549 11.1792 11.6998 11.146 11.6667 11.1019C11.6226 11.0577 11.6115 10.9914 11.6005 10.9141H11.3579C11.3579 11.0356 11.391 11.146 11.4572 11.2344C11.5343 11.3118 11.6446 11.367 11.788 11.3891C11.8872 11.4001 11.9865 11.3891 12.0526 11.3891C12.1298 11.367 12.185 11.3338 12.2291 11.2786C12.2732 11.2234 12.3063 11.1571 12.3063 11.0908C12.3063 11.0135 12.3063 10.9472 12.2842 10.892C12.2622 10.8367 12.218 10.7925 12.1739 10.7484C12.1188 10.7152 12.0416 10.671 11.9203 10.6268C11.81 10.5827 11.7328 10.5495 11.7108 10.5164C11.6887 10.4943 11.6777 10.4722 11.6887 10.439C11.6887 10.4059 11.7108 10.3838 11.7328 10.3728C11.777 10.3507 11.8321 10.3396 11.8983 10.3507C11.9644 10.3507 12.0196 10.3838 12.0416 10.4169C12.0747 10.4501 12.0857 10.4943 12.0857 10.5606L12.3283 10.5827C12.3393 10.4722 12.3173 10.3838 12.2511 10.3065C12.185 10.2292 12.0747 10.185 11.9203 10.1629C11.8321 10.1518 11.7439 10.1629 11.6777 10.1629C11.6115 10.185 11.5564 10.2181 11.5123 10.2623C11.4682 10.3065 11.4461 10.3617 11.4351 10.428C11.4241 10.5274 11.4461 10.6047 11.5123 10.6821C11.5564 10.7373 11.6446 10.7925 11.7659 10.8367C11.8652 10.8809 11.9313 10.903 11.9534 10.9141C11.9975 10.9362 12.0196 10.9582 12.0306 10.9803C12.0416 11.0024 12.0526 11.0245 12.0416 11.0577C12.0416 11.1019 12.0085 11.135 11.9644 11.1681" fill="white"/>
<path d="M14.7422 11.8424C14.8194 11.8424 14.8745 11.8092 14.9297 11.7761C14.9958 11.7319 15.051 11.6767 15.0951 11.5883C15.1392 11.522 15.1612 11.4447 15.1833 11.3452C15.2054 11.2348 15.2054 11.1354 15.1943 11.058C15.1833 10.9807 15.1612 10.9034 15.1171 10.8481C15.073 10.7819 15.0289 10.7377 14.9628 10.7045C14.9186 10.6824 14.8415 10.6603 14.7422 10.6382L14.3011 10.5609L14.0806 11.7429L14.5327 11.8313C14.6209 11.8534 14.6981 11.8534 14.7532 11.8424M14.4996 10.8039L14.6099 10.826C14.7091 10.8481 14.7753 10.8592 14.8084 10.8702C14.8525 10.8923 14.8856 10.9144 14.9076 10.9476C14.9297 10.9807 14.9517 11.0249 14.9517 11.0801C14.9517 11.1354 14.9517 11.2016 14.9407 11.29C14.9186 11.3784 14.8966 11.4557 14.8745 11.4999C14.8525 11.5441 14.8194 11.5883 14.7863 11.5993C14.7532 11.6214 14.7202 11.6325 14.676 11.6325C14.643 11.6325 14.5989 11.6325 14.5327 11.6214L14.3563 11.5883L14.5106 10.8039H14.4996Z" fill="white"/>
<path d="M13.1549 11.3011L13.629 11.3784L13.6952 11.6656L13.9599 11.7098L13.6621 10.4394L13.4085 10.4062L12.7579 11.522L13.0115 11.5662L13.1549 11.3121V11.3011ZM13.4857 10.6935L13.5849 11.1574L13.2651 11.1022L13.4967 10.6824L13.4857 10.6935Z" fill="white"/>
<path d="M73.3209 14.0629C73.3209 14.0629 75.383 11.8425 75.383 8.63884C75.383 2.73977 69.2297 0.0664062 69.2297 0.0664062H57.5407V32.8869H73.0121C73.0121 32.8869 80.8305 30.4013 80.8305 23.4197C80.8305 16.438 73.3098 14.0629 73.3098 14.0629" fill="white"/>
<path d="M28.8814 32.8869H56.6262L42.7538 0.0664062L28.8814 32.8869Z" fill="white"/>
<path d="M88.8804 18.0726H88.3511V32.268H88.8804V18.0726Z" fill="white"/>
<path d="M107.164 30.5999C106.778 30.8871 106.37 31.1412 105.929 31.3511C105.488 31.561 105.014 31.7156 104.518 31.8371C104.011 31.9586 103.448 32.0139 102.831 32.0139C101.849 32.0139 100.945 31.8371 100.118 31.4726C99.2908 31.108 98.574 30.6109 97.9675 29.9923C97.361 29.3737 96.8869 28.6225 96.545 27.7718C96.2032 26.9212 96.0267 26.0043 96.0267 25.0212C96.0267 24.038 96.2032 23.1432 96.545 22.2926C96.8869 21.4419 97.361 20.6908 97.9675 20.05C98.574 19.4093 99.3019 18.9011 100.14 18.5366C100.978 18.1721 101.893 17.9843 102.886 17.9843C103.503 17.9843 104.066 18.0395 104.562 18.1389C105.058 18.2383 105.521 18.393 105.94 18.5808C106.37 18.7686 106.756 18.9895 107.12 19.2547C107.484 19.5198 107.826 19.818 108.168 20.1384L107.12 21.2652C106.536 20.7239 105.918 20.271 105.257 19.9285C104.595 19.575 103.79 19.4093 102.864 19.4093C102.114 19.4093 101.419 19.5529 100.78 19.8401C100.14 20.1274 99.5886 20.5251 99.1144 21.0222C98.6402 21.5303 98.2763 22.1158 98.0117 22.8007C97.747 23.4856 97.6147 24.2147 97.6147 24.9991C97.6147 25.7834 97.747 26.5235 98.0117 27.2085C98.2763 27.8934 98.6402 28.4899 99.1144 28.9981C99.5886 29.5062 100.14 29.9039 100.78 30.1911C101.419 30.4784 102.114 30.622 102.864 30.622C103.79 30.622 104.595 30.4563 105.268 30.1138C105.94 29.7713 106.602 29.2853 107.242 28.6667L108.245 29.6609C107.892 30.0254 107.528 30.3458 107.153 30.6441L107.164 30.5999Z" fill="white"/>
<path d="M123.671 31.7709H122.028L120.44 28.1806H113.063L111.453 31.7709H109.887L116.062 18.0947H117.496L123.671 31.7709ZM116.757 19.8954L113.659 26.8218H119.834L116.757 19.8954Z" fill="white"/>
<path d="M139.486 31.7709H137.843L136.255 28.1806H128.878L127.268 31.7709H125.702L131.877 18.0947H133.311L139.486 31.7709ZM132.572 19.8954L129.473 26.8218H135.648L132.572 19.8954Z" fill="white"/>
<path d="M152.243 24.9989C151.956 25.5954 151.57 26.0925 151.074 26.4902C150.578 26.8879 149.994 27.1862 149.332 27.3961C148.67 27.606 147.953 27.6943 147.193 27.6943H144.932V31.7707H141.955V18.194H147.49C148.306 18.194 149.034 18.3044 149.674 18.5364C150.313 18.7684 150.854 19.0777 151.295 19.4975C151.736 19.9062 152.078 20.4034 152.32 20.9778C152.563 21.5522 152.673 22.193 152.673 22.8889V22.9331C152.673 23.7174 152.53 24.4134 152.243 25.0099V24.9989ZM149.652 22.9442C149.652 22.2703 149.431 21.7621 149.001 21.4086C148.571 21.0551 147.976 20.8894 147.226 20.8894H144.921V25.0431H147.281C148.031 25.0431 148.615 24.8442 149.023 24.4465C149.442 24.0489 149.641 23.5628 149.641 22.9773V22.9331L149.652 22.9442Z" fill="white"/>
<path d="M155.021 31.7707V18.194H157.999V31.7707H155.021Z" fill="white"/>
</g>
<defs>
<clipPath id="clip0_15_712">
<rect width="158" height="44" fill="white"/>
</clipPath>
</defs>
</svg>
