<svg width="384" height="833" viewBox="0 0 384 833" fill="none" xmlns="http://www.w3.org/2000/svg">
<g clip-path="url(#clip0_15_343)">
<rect x="-448" y="-641" width="1615.53" height="1518.2" fill="#184184"/>
<mask id="mask0_15_343" style="mask-type:alpha" maskUnits="userSpaceOnUse" x="-448" y="-641" width="1616" height="1519">
<rect x="-448" y="-641" width="1615.53" height="1518.2" fill="#184184"/>
</mask>
<g mask="url(#mask0_15_343)">
<g style="mix-blend-mode:screen" opacity="0.08">
<path d="M191.267 -207.131H83.5905V9.42691H191.267V-207.131Z" fill="white"/>
<path d="M407.845 -207.131H191.268V9.4263H407.845V-207.131Z" fill="#404040"/>
<path d="M562.038 -207.131H345.48V9.4263H562.038V-207.131Z" fill="#79797A"/>
<path d="M191.661 -207.131C131.857 -207.131 83.382 -158.656 83.382 -98.8525C83.382 -39.0489 131.857 9.4263 191.661 9.4263V-207.131Z" fill="#585858"/>
<path fill-rule="evenodd" clip-rule="evenodd" d="M362.059 9.44508L254.025 -207.131L145.972 9.44508H362.059Z" fill="#79797A"/>
<path fill-rule="evenodd" clip-rule="evenodd" d="M479.615 9.44508L370.565 -207.131L261.496 9.44508H479.615Z" fill="white"/>
<path d="M30.7297 9.76477H-185.828V226.322H30.7297V9.76477Z" fill="#79797A"/>
<path d="M90.5361 9.61377H30.7513V226.341H90.5361V9.61377Z" fill="#79797A"/>
<path d="M52.0324 83.3052C52.0324 123.914 19.1197 156.846 -21.5083 156.846V226.341H-81.8577V9.7832H-21.5083C19.1009 9.7832 52.0324 42.6959 52.0324 83.3052Z" fill="#404040"/>
<path d="M131.503 9.68945H-85.0737V226.247H131.503V9.68945Z" fill="white"/>
<path d="M285.698 9.68945H69.1401V226.247H285.698V9.68945Z" fill="#404040"/>
<path d="M345.483 9.52002H285.698V226.247H345.483V9.52002Z" fill="#585858"/>
<path fill-rule="evenodd" clip-rule="evenodd" d="M85.7154 226.247L-22.3188 9.68945L-130.372 226.247H85.7154Z" fill="#585858"/>
<path fill-rule="evenodd" clip-rule="evenodd" d="M203.275 226.247L94.2247 9.68945L-14.8445 226.247H203.275Z" fill="#79797A"/>
<path d="M306.983 83.2114C306.983 123.821 274.07 156.752 233.442 156.752V226.247H173.093V9.68945H233.442C274.051 9.68945 306.983 42.6022 306.983 83.2114Z" fill="white"/>
<path d="M453.348 9.68945H345.671V226.247H453.348V9.68945Z" fill="#79797A"/>
<path d="M453.763 9.68945C393.959 9.68945 345.484 58.1646 345.484 117.968C345.484 177.772 393.959 226.247 453.763 226.247V9.68945Z" fill="#585858"/>
<path d="M30.7297 -207.207H-185.828V9.35046H30.7297V-207.207Z" fill="white"/>
<path d="M90.5361 -207.377H30.7513V9.3504H90.5361V-207.377Z" fill="#404040"/>
<path d="M52.0324 -133.685C52.0324 -93.076 19.1197 -60.1444 -21.5083 -60.1444V9.35046H-81.8577V-207.207H-21.5083C19.1009 -207.207 52.0324 -174.294 52.0324 -133.685Z" fill="#79797A"/>
<path d="M30.7297 226.586H-185.828V443.143H30.7297V226.586Z" fill="#79797A"/>
<path d="M90.5361 226.417H30.7513V443.144H90.5361V226.417Z" fill="white"/>
<path d="M52.0324 300.108C52.0324 340.717 19.1009 373.649 -21.5083 373.649V443.143H-81.8577V226.586H-21.5083C19.1009 226.586 52.0324 259.498 52.0324 300.108Z" fill="#585858"/>
<path d="M100.21 443.387H-7.46679V659.945H100.21V443.387Z" fill="white"/>
<path d="M316.784 443.387H100.207V659.945H316.784V443.387Z" fill="#404040"/>
<path d="M470.981 443.405H254.423V659.963H470.981V443.405Z" fill="#79797A"/>
<path d="M100.604 443.405C40.8 443.405 -7.67523 491.88 -7.67523 551.684C-7.67523 611.488 40.8 659.963 100.604 659.963V443.405Z" fill="#585858"/>
<path fill-rule="evenodd" clip-rule="evenodd" d="M270.998 659.964L162.964 443.387L54.9111 659.964H270.998Z" fill="#79797A"/>
<path fill-rule="evenodd" clip-rule="evenodd" d="M388.558 659.963L279.507 443.405L170.438 659.963H388.558Z" fill="white"/>
<path d="M492.282 516.927C492.282 557.536 459.35 590.468 418.741 590.468V659.963H358.391V443.405H418.741C459.35 443.405 492.282 476.318 492.282 516.927Z" fill="#404040"/>
<path d="M198.401 226.586H90.7243V443.144H198.401V226.586Z" fill="#585858"/>
<path d="M414.977 226.586H198.4V443.143H414.977V226.586Z" fill="white"/>
<path d="M569.173 226.586H352.616V443.143H569.173V226.586Z" fill="#404040"/>
<path d="M198.796 226.586C138.993 226.586 90.5176 275.061 90.5176 334.865C90.5176 394.668 138.993 443.143 198.796 443.143V226.586Z" fill="#79797A"/>
<path fill-rule="evenodd" clip-rule="evenodd" d="M369.191 443.143L261.157 226.586L153.104 443.143H369.191Z" fill="#585858"/>
<path fill-rule="evenodd" clip-rule="evenodd" d="M486.751 443.143L377.7 226.586L268.631 443.143H486.751Z" fill="#79797A"/>
<path d="M197.981 660.285H90.3048V876.843H197.981V660.285Z" fill="white"/>
<path d="M414.58 660.285H198.004V876.843H414.58V660.285Z" fill="#79797A"/>
<path d="M568.756 660.303H352.198V876.861H568.756V660.303Z" fill="#79797A"/>
<path d="M198.398 660.303C138.595 660.303 90.1196 708.778 90.1196 768.582C90.1196 828.386 138.595 876.861 198.398 876.861V660.303Z" fill="#404040"/>
<path fill-rule="evenodd" clip-rule="evenodd" d="M368.797 876.861L260.744 660.285L152.709 876.861H368.797Z" fill="#585858"/>
<path fill-rule="evenodd" clip-rule="evenodd" d="M486.348 876.861L377.279 660.303L268.21 876.861H486.348Z" fill="white"/>
<path d="M30.338 660.377H-186.22V876.934H30.338V660.377Z" fill="white"/>
<path d="M90.123 660.208H30.3383V876.935H90.123V660.208Z" fill="#79797A"/>
<path d="M51.639 733.899C51.639 774.508 18.7262 807.439 -21.9018 807.439V876.934H-82.2512V660.377H-21.9018C18.7074 660.377 51.639 693.289 51.639 733.899Z" fill="#404040"/>
<path d="M452.952 660.208H345.276V876.766H452.952V660.208Z" fill="#585858"/>
<path d="M453.346 660.208C393.542 660.208 345.067 708.684 345.067 768.487C345.067 828.291 393.542 876.766 453.346 876.766V660.208Z" fill="#79797A"/>
</g>
</g>
</g>
<defs>
<clipPath id="clip0_15_343">
<rect width="1615.53" height="1518.2" fill="white" transform="translate(-448 -641)"/>
</clipPath>
</defs>
</svg>
