<svg width="384" height="167" viewBox="0 0 384 167" fill="none" xmlns="http://www.w3.org/2000/svg">
<path d="M31.9944 0.126587H-134.872V166.768H31.9944V0.126587Z" fill="#173C6B"/>
<path d="M150.804 0.126587H-16.062V166.742H150.804V0.126587Z" fill="#CF1920"/>
<path d="M196.857 0H150.804V166.768H196.857V0Z" fill="white"/>
<path fill-rule="evenodd" clip-rule="evenodd" d="M87.3037 166.768L3.26188 0.126587L-80.7545 166.768H87.3037Z" fill="white"/>
<path d="M167.212 56.7036C167.212 87.9551 141.852 113.281 110.559 113.281V166.742H64.0744V0.126587H110.559C141.852 0.126587 167.212 25.452 167.212 56.7036Z" fill="#10567C"/>
<path d="M279.987 0.126587H197.01V166.768H279.987V0.126587Z" fill="#10567C"/>
<path d="M446.853 0.126587H279.987V166.768H446.853V0.126587Z" fill="white"/>
<path d="M280.291 0.126587C234.213 0.126587 196.858 37.4309 196.858 83.4472C196.858 129.463 234.213 166.768 280.291 166.768V0.126587Z" fill="#CF1920"/>
<path fill-rule="evenodd" clip-rule="evenodd" d="M411.578 166.768L328.322 0.126587L245.092 166.768H411.578Z" fill="#173C6B"/>
<path fill-rule="evenodd" clip-rule="evenodd" d="M502.162 166.768L418.121 0.126587L334.079 166.768H502.162Z" fill="#CF1920"/>
</svg>
