<svg width="23" height="21" viewBox="0 0 23 21" fill="none" xmlns="http://www.w3.org/2000/svg">
<path d="M22.6328 10.4805C22.6328 11.1836 22.0469 11.7344 21.3828 11.7344H20.1328L20.1602 17.9922C20.1602 18.0977 20.1523 18.2031 20.1406 18.3086V18.9375C20.1406 19.8008 19.4414 20.5 18.5781 20.5H17.9531C17.9102 20.5 17.8672 20.5 17.8242 20.4961C17.7695 20.5 17.7148 20.5 17.6602 20.5H16.3906H15.4531C14.5898 20.5 13.8906 19.8008 13.8906 18.9375V18V15.5C13.8906 14.8086 13.332 14.25 12.6406 14.25H10.1406C9.44922 14.25 8.89062 14.8086 8.89062 15.5V18V18.9375C8.89062 19.8008 8.19141 20.5 7.32812 20.5H6.39062H5.14453C5.08594 20.5 5.02734 20.4961 4.96875 20.4922C4.92187 20.4961 4.875 20.5 4.82812 20.5H4.20312C3.33984 20.5 2.64062 19.8008 2.64062 18.9375V14.5625C2.64062 14.5273 2.64062 14.4883 2.64453 14.4531V11.7344H1.39062C0.6875 11.7344 0.140625 11.1875 0.140625 10.4805C0.140625 10.1289 0.257812 9.81641 0.53125 9.54297L10.5469 0.8125C10.8203 0.539062 11.1328 0.5 11.4062 0.5C11.6797 0.5 11.9922 0.578125 12.2266 0.773438L22.2031 9.54297C22.5156 9.81641 22.6719 10.1289 22.6328 10.4805Z" fill="#9CA3AF"/>
</svg>
